# xmcd
#
# Track frame offsets: 
#        150
#        11487
#        26132
#        37646
#        51217
#        61453
#        72403
#        83035
#        94128
#        103138
#        116043
#        125233
#        138661
#        151256
#        161081
#        172812
#        187362
#        200745
#        214010
#        229346
#
# Disc length: 3219 seconds
#
# Revision: 3
# Processed by: cddbd v1.5.2PL0 Copyright (c) Steve Scherf et al.
# Submitted via: ExactAudioCopy v1.0b1
#
DISCID=260c9114
DTITLE=Merle Haggard - 25th Anniversary Album
DYEAR=1900
DGENRE=Country
TTITLE0=Please Mr. D.J.
TTITLE1=I Wonder What She'll Think About Me Leaving
TTITLE2=Life's Like Poetry
TTITLE3=Holding Things Together
TTITLE4=I've Done It All
TTITLE5=Home Is Where A Kid Grows Up
TTITLE6=The Girl Turned Ripe
TTITLE7=Irma Jackson
TTITLE8=White Man Singing The Blues
TTITLE9=Love And Honor
TTITLE10=I'm Gonna Break Every Heart I Can
TTITLE11=The Farmer's Daughter
TTITLE12=Wine Take Me Away
TTITLE13=I Wonder Where I'll Find You At Tonight
TTITLE14=Someone Told My Story
TTITLE15=After Loving You
TTITLE16=A Working Man Can'T Get Nowhere Today
TTITLE17=I Can't Hold Myself In Line
TTITLE18=The Way It Was In '51
TTITLE19=Silver Wings
EXTD=
EXTT0=
EXTT1=
EXTT2=
EXTT3=
EXTT4=
EXTT5=
EXTT6=
EXTT7=
EXTT8=
EXTT9=
EXTT10=
EXTT11=
EXTT12=
EXTT13=
EXTT14=
EXTT15=
EXTT16=
EXTT17=
EXTT18=
EXTT19=
PLAYORDER=
